<svg width="12" height="12" viewBox="0 0 12 12" fill="none" xmlns="http://www.w3.org/2000/svg">
<path d="M5.625 0.75C2.93848 0.75 0.75 2.93848 0.75 5.625C0.75 8.31152 2.93848 10.5 5.625 10.5C8.31152 10.5 10.5 8.31152 10.5 5.625C10.5 2.93848 8.31152 0.75 5.625 0.75ZM5.625 1.5C7.90723 1.5 9.75 3.34277 9.75 5.625C9.75 7.90723 7.90723 9.75 5.625 9.75C3.34277 9.75 1.5 7.90723 1.5 5.625C1.5 3.34277 3.34277 1.5 5.625 1.5ZM4.125 3.59473L3.59473 4.125L3.86133 4.38867L5.09473 5.625L3.86133 6.86133L3.59473 7.125L4.125 7.65527L4.38867 7.38867L5.625 6.15527L6.86133 7.38867L7.125 7.65527L7.65527 7.125L7.38867 6.86133L6.15527 5.625L7.38867 4.38867L7.65527 4.125L7.125 3.59473L6.86133 3.86133L5.625 5.09473L4.38867 3.86133L4.125 3.59473Z" fill="black"/>
</svg>
