<svg width="12" height="12" viewBox="0 0 12 12" fill="none" xmlns="http://www.w3.org/2000/svg">
<path d="M11.1429 4.875H7.28571V1.5C7.28571 1.08586 6.90188 0.75 6.42857 0.75H5.57143C5.09813 0.75 4.71429 1.08586 4.71429 1.5V4.875H0.857143C0.383839 4.875 0 5.21086 0 5.625V6.375C0 6.78914 0.383839 7.125 0.857143 7.125H4.71429V10.5C4.71429 10.9141 5.09813 11.25 5.57143 11.25H6.42857C6.90188 11.25 7.28571 10.9141 7.28571 10.5V7.125H11.1429C11.6162 7.125 12 6.78914 12 6.375V5.625C12 5.21086 11.6162 4.875 11.1429 4.875Z" fill="black"/>
</svg>
