<svg width="10" height="12" viewBox="0 0 10 12" fill="none" xmlns="http://www.w3.org/2000/svg">
<g clip-path="url(#clip0)">
<path d="M0.714286 10.8748C0.714286 11.1732 0.827168 11.4593 1.0281 11.6703C1.22903 11.8813 1.50155 11.9998 1.78571 11.9998H8.21429C8.49845 11.9998 8.77097 11.8813 8.9719 11.6703C9.17283 11.4593 9.28571 11.1732 9.28571 10.8748V2.99982H0.714286V10.8748ZM6.78571 4.87482C6.78571 4.77537 6.82334 4.67998 6.89032 4.60966C6.9573 4.53933 7.04814 4.49982 7.14286 4.49982C7.23758 4.49982 7.32842 4.53933 7.3954 4.60966C7.46237 4.67998 7.5 4.77537 7.5 4.87482V10.1248C7.5 10.2243 7.46237 10.3197 7.3954 10.39C7.32842 10.4603 7.23758 10.4998 7.14286 10.4998C7.04814 10.4998 6.9573 10.4603 6.89032 10.39C6.82334 10.3197 6.78571 10.2243 6.78571 10.1248V4.87482ZM4.64286 4.87482C4.64286 4.77537 4.68048 4.67998 4.74746 4.60966C4.81444 4.53933 4.90528 4.49982 5 4.49982C5.09472 4.49982 5.18556 4.53933 5.25254 4.60966C5.31952 4.67998 5.35714 4.77537 5.35714 4.87482V10.1248C5.35714 10.2243 5.31952 10.3197 5.25254 10.39C5.18556 10.4603 5.09472 10.4998 5 10.4998C4.90528 10.4998 4.81444 10.4603 4.74746 10.39C4.68048 10.3197 4.64286 10.2243 4.64286 10.1248V4.87482ZM2.5 4.87482C2.5 4.77537 2.53763 4.67998 2.6046 4.60966C2.67158 4.53933 2.76242 4.49982 2.85714 4.49982C2.95186 4.49982 3.0427 4.53933 3.10968 4.60966C3.17666 4.67998 3.21429 4.77537 3.21429 4.87482V10.1248C3.21429 10.2243 3.17666 10.3197 3.10968 10.39C3.0427 10.4603 2.95186 10.4998 2.85714 10.4998C2.76242 10.4998 2.67158 10.4603 2.6046 10.39C2.53763 10.3197 2.5 10.2243 2.5 10.1248V4.87482ZM9.64286 0.749821H6.96429L6.75446 0.31154C6.71002 0.21784 6.64155 0.139022 6.55677 0.0839519C6.47198 0.0288822 6.37425 -0.000254073 6.27455 -0.000178996H3.72321C3.62375 -0.000580493 3.52618 0.0284471 3.4417 0.0835781C3.35721 0.138709 3.28923 0.217714 3.24554 0.31154L3.03571 0.749821H0.357143C0.262423 0.749821 0.171582 0.78933 0.104605 0.859656C0.0376274 0.929982 0 1.02537 0 1.12482L0 1.87482C0 1.97428 0.0376274 2.06966 0.104605 2.13999C0.171582 2.21031 0.262423 2.24982 0.357143 2.24982H9.64286C9.73758 2.24982 9.82842 2.21031 9.8954 2.13999C9.96237 2.06966 10 1.97428 10 1.87482V1.12482C10 1.02537 9.96237 0.929982 9.8954 0.859656C9.82842 0.78933 9.73758 0.749821 9.64286 0.749821V0.749821Z" fill="black"/>
</g>
<defs>
<clipPath id="clip0">
<rect width="10" height="12" fill="white"/>
</clipPath>
</defs>
</svg>
