<svg width="12" height="12" viewBox="0 0 12 12" fill="none" xmlns="http://www.w3.org/2000/svg">
<g clip-path="url(#clip0)">
<path d="M8.3875 1.95004L10.2667 4.0641C10.3458 4.15316 10.3458 4.29847 10.2667 4.38754L5.71667 9.50629L3.78333 9.74769C3.525 9.78051 3.30625 9.53441 3.33542 9.24379L3.55 7.06879L8.1 1.95004C8.17917 1.86097 8.30833 1.86097 8.3875 1.95004ZM11.7625 1.41332L10.7458 0.269568C10.4292 -0.0866821 9.91458 -0.0866821 9.59583 0.269568L8.85833 1.09926C8.77917 1.18832 8.77917 1.33363 8.85833 1.42269L10.7375 3.53676C10.8167 3.62582 10.9458 3.62582 11.025 3.53676L11.7625 2.70707C12.0792 2.34847 12.0792 1.76957 11.7625 1.41332V1.41332ZM8 8.1141V10.5H1.33333V3.00004H6.12083C6.1875 3.00004 6.25 2.96957 6.29792 2.91801L7.13125 1.98051C7.28958 1.80238 7.17708 1.50004 6.95417 1.50004H1C0.447917 1.50004 0 2.00394 0 2.62504V10.875C0 11.4961 0.447917 12 1 12H8.33333C8.88542 12 9.33333 11.4961 9.33333 10.875V7.1766C9.33333 6.92582 9.06458 6.8016 8.90625 6.97738L8.07292 7.91488C8.02708 7.96879 8 8.0391 8 8.1141Z" fill="black"/>
</g>
<defs>
<clipPath id="clip0">
<rect width="12" height="12" fill="white"/>
</clipPath>
</defs>
</svg>
