<svg width="10" height="12" viewBox="0 0 10 12" fill="none" xmlns="http://www.w3.org/2000/svg">
<path d="M9.68618 3.04549L7.81382 1.07951C7.61289 0.868529 7.34037 0.750002 7.05621 0.75H1.07143C0.479688 0.75 0 1.25367 0 1.875V10.125C0 10.7463 0.479688 11.25 1.07143 11.25H8.92857C9.52031 11.25 10 10.7463 10 10.125V3.84098C10 3.54262 9.88712 3.25647 9.68618 3.04549V3.04549ZM5 9.75C4.21103 9.75 3.57143 9.07842 3.57143 8.25C3.57143 7.42158 4.21103 6.75 5 6.75C5.78897 6.75 6.42857 7.42158 6.42857 8.25C6.42857 9.07842 5.78897 9.75 5 9.75ZM7.14286 2.61281V4.96875C7.14286 5.12407 7.02292 5.25 6.875 5.25H1.69643C1.5485 5.25 1.42857 5.12407 1.42857 4.96875V2.53125C1.42857 2.37593 1.5485 2.25 1.69643 2.25H6.79732C6.86837 2.25 6.9365 2.27962 6.98672 2.33238L7.0644 2.41395C7.08927 2.44006 7.10901 2.47106 7.12247 2.50518C7.13593 2.53931 7.14286 2.57588 7.14286 2.61281V2.61281Z" fill="black"/>
</svg>
